<svg width="33" height="33" viewBox="0 0 33 33" fill="none" xmlns="http://www.w3.org/2000/svg">
<g clip-path="url(#clip0)">
<path d="M22.3694 8.13174L16.2627 14.2385L10.156 8.13174C9.88748 7.86321 9.52327 7.71234 9.1435 7.71234C8.76373 7.71234 8.39952 7.86321 8.13098 8.13174C7.86245 8.40028 7.71159 8.76449 7.71159 9.14426C7.71159 9.52403 7.86245 9.88824 8.13098 10.1568L14.2377 16.2635L8.13101 22.3702C7.86247 22.6387 7.71161 23.0029 7.71161 23.3827C7.71161 23.7624 7.86247 24.1267 8.13101 24.3952C8.39954 24.6637 8.76376 24.8146 9.14352 24.8146C9.52329 24.8146 9.8875 24.6637 10.156 24.3952L16.2627 18.2885L22.3694 24.3952C22.638 24.6637 23.0022 24.8146 23.3819 24.8146C23.7617 24.8146 24.1259 24.6637 24.3945 24.3952C24.663 24.1266 24.8139 23.7624 24.8139 23.3827C24.8139 23.0029 24.663 22.6387 24.3945 22.3701L18.2878 16.2634L24.3944 10.1568C24.5274 10.0238 24.6329 9.86593 24.7048 9.6922C24.7768 9.51848 24.8138 9.33228 24.8138 9.14424C24.8138 8.95619 24.7768 8.76999 24.7048 8.59627C24.6329 8.42254 24.5274 8.26468 24.3944 8.13172C24.2615 7.99875 24.1036 7.89328 23.9299 7.82132C23.7562 7.74936 23.57 7.71232 23.3819 7.71232C23.1939 7.71232 23.0077 7.74936 22.834 7.82132C22.6602 7.89328 22.5024 7.99875 22.3694 8.13172L22.3694 8.13174Z" fill="#FF5656"/>
</g>
<defs>
<clipPath id="clip0">
<rect width="23" height="23" fill="white" transform="translate(0 16.2635) rotate(-45)"/>
</clipPath>
</defs>
</svg>
